<mxfile host="app.diagrams.net" modified="2024-05-26T09:29:47.402Z" agent="Mozilla/5.0 (Windows NT 10.0; Win64; x64) AppleWebKit/537.36 (KHTML, like Gecko) Chrome/125.0.0.0 Safari/537.36 Edg/125.0.0.0" etag="obJqu5Jr6sUEMlNpNtby" version="24.4.8" type="github">
  <diagram name="第 1 页" id="yZKne9HB70mdw93hGmpD">
    <mxGraphModel dx="1002" dy="577" grid="1" gridSize="10" guides="1" tooltips="1" connect="1" arrows="1" fold="1" page="1" pageScale="1" pageWidth="827" pageHeight="1169" math="0" shadow="0">
      <root>
        <mxCell id="0" />
        <mxCell id="1" parent="0" />
        <mxCell id="f4LGHd-jwCOdmEU22dmz-1" value="Base Layer" style="rounded=0;whiteSpace=wrap;html=1;fillColor=#dae8fc;strokeColor=#6c8ebf;" vertex="1" parent="1">
          <mxGeometry x="120" y="80" width="120" height="50" as="geometry" />
        </mxCell>
        <mxCell id="f4LGHd-jwCOdmEU22dmz-3" value="" style="endArrow=classic;html=1;rounded=0;exitX=0.5;exitY=1;exitDx=0;exitDy=0;" edge="1" parent="1" source="f4LGHd-jwCOdmEU22dmz-1">
          <mxGeometry width="50" height="50" relative="1" as="geometry">
            <mxPoint x="390" y="330" as="sourcePoint" />
            <mxPoint x="110" y="170" as="targetPoint" />
          </mxGeometry>
        </mxCell>
        <mxCell id="f4LGHd-jwCOdmEU22dmz-4" value="" style="endArrow=classic;html=1;rounded=0;entryX=0.5;entryY=0;entryDx=0;entryDy=0;" edge="1" parent="1" target="f4LGHd-jwCOdmEU22dmz-8">
          <mxGeometry width="50" height="50" relative="1" as="geometry">
            <mxPoint x="180" y="130" as="sourcePoint" />
            <mxPoint x="250" y="170" as="targetPoint" />
          </mxGeometry>
        </mxCell>
        <mxCell id="f4LGHd-jwCOdmEU22dmz-5" value="Part1" style="rounded=0;whiteSpace=wrap;html=1;fillColor=#dae8fc;strokeColor=#6c8ebf;" vertex="1" parent="1">
          <mxGeometry x="50" y="170" width="120" height="50" as="geometry" />
        </mxCell>
        <mxCell id="f4LGHd-jwCOdmEU22dmz-12" value="" style="edgeStyle=orthogonalEdgeStyle;rounded=0;orthogonalLoop=1;jettySize=auto;html=1;" edge="1" parent="1" source="f4LGHd-jwCOdmEU22dmz-8" target="f4LGHd-jwCOdmEU22dmz-11">
          <mxGeometry relative="1" as="geometry" />
        </mxCell>
        <mxCell id="f4LGHd-jwCOdmEU22dmz-8" value="Part2" style="rounded=0;whiteSpace=wrap;html=1;fillColor=#dae8fc;strokeColor=#6c8ebf;" vertex="1" parent="1">
          <mxGeometry x="230" y="170" width="120" height="50" as="geometry" />
        </mxCell>
        <mxCell id="f4LGHd-jwCOdmEU22dmz-14" value="" style="edgeStyle=orthogonalEdgeStyle;rounded=0;orthogonalLoop=1;jettySize=auto;html=1;" edge="1" parent="1" source="f4LGHd-jwCOdmEU22dmz-11" target="f4LGHd-jwCOdmEU22dmz-13">
          <mxGeometry relative="1" as="geometry" />
        </mxCell>
        <mxCell id="f4LGHd-jwCOdmEU22dmz-11" value="Dense Block" style="rounded=0;whiteSpace=wrap;html=1;fillColor=#f8cecc;strokeColor=#b85450;" vertex="1" parent="1">
          <mxGeometry x="230" y="250" width="120" height="50" as="geometry" />
        </mxCell>
        <mxCell id="f4LGHd-jwCOdmEU22dmz-13" value="Transition" style="rounded=0;whiteSpace=wrap;html=1;fillColor=#e1d5e7;strokeColor=#9673a6;" vertex="1" parent="1">
          <mxGeometry x="230" y="350" width="120" height="50" as="geometry" />
        </mxCell>
        <mxCell id="f4LGHd-jwCOdmEU22dmz-15" value="Transition" style="rounded=0;whiteSpace=wrap;html=1;fillColor=#e1d5e7;strokeColor=#9673a6;" vertex="1" parent="1">
          <mxGeometry x="130" y="430" width="120" height="60" as="geometry" />
        </mxCell>
        <mxCell id="f4LGHd-jwCOdmEU22dmz-16" value="" style="endArrow=classic;html=1;rounded=0;exitX=0.42;exitY=1.008;exitDx=0;exitDy=0;exitPerimeter=0;entryX=0.5;entryY=0;entryDx=0;entryDy=0;" edge="1" parent="1" source="f4LGHd-jwCOdmEU22dmz-5" target="f4LGHd-jwCOdmEU22dmz-15">
          <mxGeometry width="50" height="50" relative="1" as="geometry">
            <mxPoint x="390" y="330" as="sourcePoint" />
            <mxPoint x="440" y="280" as="targetPoint" />
          </mxGeometry>
        </mxCell>
        <mxCell id="f4LGHd-jwCOdmEU22dmz-17" value="" style="endArrow=classic;html=1;rounded=0;exitX=0.5;exitY=1;exitDx=0;exitDy=0;entryX=0.5;entryY=0;entryDx=0;entryDy=0;" edge="1" parent="1" source="f4LGHd-jwCOdmEU22dmz-13" target="f4LGHd-jwCOdmEU22dmz-15">
          <mxGeometry width="50" height="50" relative="1" as="geometry">
            <mxPoint x="390" y="330" as="sourcePoint" />
            <mxPoint x="440" y="280" as="targetPoint" />
          </mxGeometry>
        </mxCell>
      </root>
    </mxGraphModel>
  </diagram>
</mxfile>
